<svg width="24" height="24" fill="none" xmlns="http://www.w3.org/2000/svg"><mask id="a" maskUnits="userSpaceOnUse" x="0" y="0" width="24" height="24"><path d="M3.846 0h16.308c1.337 0 1.822.14 2.311.4.49.262.873.646 1.134 1.135.262.489.401.974.401 2.31v16.31c0 1.336-.14 1.821-.4 2.31a2.726 2.726 0 01-1.135 1.134c-.489.262-.974.401-2.31.401H3.844c-1.336 0-1.821-.14-2.31-.4A2.726 2.726 0 01.4 22.464c-.261-.488-.4-.973-.4-2.309V3.844c0-1.336.14-1.821.4-2.31A2.726 2.726 0 011.536.4c.488-.261.973-.4 2.309-.4z" fill="#fff"/></mask><g mask="url(#a)"><path d="M3.846 0h16.308c1.337 0 1.822.14 2.311.4.49.262.873.646 1.134 1.135.262.489.401.974.401 2.31v16.31c0 1.336-.14 1.821-.4 2.31a2.726 2.726 0 01-1.135 1.134c-.489.262-.974.401-2.31.401H3.844c-1.336 0-1.821-.14-2.31-.4A2.726 2.726 0 01.4 22.464c-.261-.488-.4-.973-.4-2.309V3.844c0-1.336.14-1.821.4-2.31A2.726 2.726 0 011.536.4c.488-.261.973-.4 2.309-.4z" fill="url(#paint0_linear)"/><path fill-rule="evenodd" clip-rule="evenodd" d="M16.134 13.598c-.213-.106-1.263-.623-1.458-.694-.196-.07-.338-.106-.48.107-.143.214-.552.694-.676.837-.125.142-.25.16-.463.053-.213-.107-.9-.332-1.716-1.059-.634-.566-1.063-1.264-1.187-1.478-.124-.213-.013-.329.094-.435.096-.096.213-.25.32-.374.106-.125.142-.214.213-.356.071-.142.036-.267-.018-.374-.053-.107-.48-1.157-.658-1.584-.173-.416-.349-.36-.48-.366a8.552 8.552 0 00-.409-.008.784.784 0 00-.569.267c-.196.214-.747.73-.747 1.78s.765 2.065.872 2.207c.106.143 1.504 2.297 3.645 3.222.51.22.907.35 1.217.45.511.161.976.139 1.344.084.41-.062 1.263-.517 1.44-1.015.178-.498.178-.925.125-1.014-.053-.09-.196-.143-.41-.25zm-3.894 5.315h-.003a7.09 7.09 0 01-3.613-.989l-.26-.154-2.686.705.717-2.619-.169-.268a7.078 7.078 0 01-1.085-3.777c.001-3.913 3.186-7.096 7.102-7.096 1.896 0 3.678.74 5.019 2.081a7.053 7.053 0 012.077 5.02c-.002 3.914-3.186 7.097-7.099 7.097zm6.042-13.136a8.487 8.487 0 00-6.042-2.504c-4.708 0-8.54 3.83-8.541 8.537a8.52 8.52 0 001.14 4.27l-1.212 4.424 4.528-1.188a8.537 8.537 0 004.082 1.04h.003c4.707 0 8.54-3.83 8.541-8.539a8.486 8.486 0 00-2.5-6.04z" fill="#fff"/></g><defs><linearGradient id="paint0_linear" x1="12" y1="24" x2="12" y2="0" gradientUnits="userSpaceOnUse"><stop stop-color="#24CF42"/><stop offset="1" stop-color="#60FD7C"/></linearGradient></defs></svg>